<svg xmlns="http://www.w3.org/2000/svg" width="256" height="256" viewBox="0 0 100 100"><rect width="100" height="100" rx="20" fill="#d9b166"></rect><path fill="#624973" d="M36.91 42.28L36.91 26.74L46.38 27.73L46.38 72.25L37.98 72.25L37.50 68.73Q36.18 70.59 33.99 71.93Q31.80 73.27 28.68 73.27L28.68 73.27Q24.72 73.27 22.13 71.14Q19.54 69.01 18.26 65.18Q16.98 61.36 16.98 56.23L16.98 56.23Q16.98 51.31 18.52 47.50Q20.04 43.69 22.89 41.51Q25.74 39.34 29.67 39.34L29.67 39.34Q31.80 39.34 33.63 40.09Q35.46 40.84 36.91 42.28L36.91 42.28ZM32.23 46.27L32.23 46.27Q29.77 46.27 28.27 48.59Q26.77 50.92 26.77 56.29L26.77 56.29Q26.77 60.22 27.39 62.39Q28.02 64.56 29.13 65.44Q30.24 66.31 31.68 66.31L31.68 66.31Q33.27 66.31 34.58 65.31Q35.88 64.33 36.91 62.62L36.91 62.62L36.91 48.88Q35.91 47.65 34.80 46.96Q33.70 46.27 32.23 46.27ZM71.67 65.80L71.67 65.80Q73.63 65.80 75.35 65.03Q77.08 64.27 78.78 63.07L78.78 63.07L83.02 69.06Q80.91 70.87 77.90 72.06Q74.89 73.27 71.16 73.27L71.16 73.27Q66.03 73.27 62.34 71.15Q58.66 69.04 56.67 65.27Q54.70 61.51 54.70 56.53L54.70 56.53Q54.70 51.55 56.72 47.66Q58.75 43.78 62.48 41.56Q66.22 39.34 71.34 39.34L71.34 39.34Q74.97 39.34 77.81 40.34Q80.64 41.35 83.02 43.33L83.02 43.33L78.91 49.03Q77.28 47.89 75.48 47.26Q73.69 46.63 71.73 46.63L71.73 46.63Q68.53 46.63 66.56 48.89Q64.59 51.16 64.59 56.53L64.59 56.53Q64.59 60.04 65.53 62.06Q66.45 64.09 68.06 64.94Q69.66 65.80 71.67 65.80Z"></path></svg>